<?xml version="1.0" encoding="UTF-8"?>
<svg xmlns="http://www.w3.org/2000/svg" width="100" height="100" viewBox="0 0 64 64">
  <!-- Monochrome mask icon for Safari pinned tabs. Black shapes become the mask. -->
  <circle cx="32" cy="32" r="30" fill="black"/>
  <path d="M8 32C12 16 20 8 32 8C44 8 52 16 56 32C52 48 44 56 32 56C20 56 12 48 8 32Z" fill="white"/>
  <path d="M32 8C48 12 56 20 56 32C56 44 48 52 32 56C16 52 8 44 8 32C8 20 16 12 32 8Z" fill="white" opacity="0.65"/>
  <circle cx="32" cy="32" r="10" fill="black"/>
  <text x="32" y="38" text-anchor="middle" font-family="Arial, Helvetica, sans-serif" font-size="18" font-weight="700" fill="white">SL</text>
</svg>

